<?xml version="1.0" encoding="iso-8859-1"?>
<!-- Generator: Adobe Illustrator 25.4.1, SVG Export Plug-In . SVG Version: 6.00 Build 0)  -->
<svg version="1.1" baseProfile="basic" id="Layer_1"
	 xmlns="http://www.w3.org/2000/svg" xmlns:xlink="http://www.w3.org/1999/xlink" x="0px" y="0px" viewBox="0 0 48 48"
	 xml:space="preserve">
<path style="fill:#9E9E9E;" d="M24,6C10.745,6,0,13.291,0,22.286s10.745,16.286,24,16.286s24-7.291,24-16.286S37.255,6,24,6z
	 M26.5,35C16.283,35,8,29.627,8,23s8.283-12,18.5-12S45,16.373,45,23S36.717,35,26.5,35z"/>
<path style="fill:#1976D2;" d="M39.051,33.469c-0.578-0.945-1.437-1.669-2.442-2.105c3.401-0.841,5.926-3.904,5.926-7.564
	c0-4.307-3.493-7.8-7.8-7.8H20.001v26h6.933V31.6h1.955c0.967,0,1.856,0.525,2.321,1.373L36.175,42h8.093L39.051,33.469z
	 M26.935,21.2h6.067c1.435,0,2.6,1.165,2.6,2.6s-1.165,2.6-2.6,2.6h-6.067V21.2z"/>
</svg>